<svg width="16" height="16" viewBox="0 0 16 16" fill="none" xmlns="http://www.w3.org/2000/svg">
<path d="M8.00004 1.33337C11.6744 1.33337 14.6667 4.32421 14.6667 8.0039C14.6667 11.6759 11.6744 14.6667 8.00004 14.6667C4.32565 14.6667 1.33337 11.6759 1.33337 8.0039C1.33337 4.32421 4.32565 1.33337 8.00004 1.33337ZM7.24071 5.35331C7.09914 5.35331 6.964 5.38547 6.8353 5.44979C6.67443 5.53984 6.54573 5.68134 6.47494 5.84857C6.4299 5.96434 6.35911 6.31167 6.35911 6.3181C6.28833 6.69758 6.24972 7.31504 6.24972 7.99682C6.24972 8.64709 6.28833 9.23818 6.34624 9.62409C6.35268 9.63053 6.42346 10.0615 6.50068 10.2094C6.64225 10.4795 6.91896 10.6468 7.21497 10.6468H7.24071C7.43376 10.6403 7.83917 10.4731 7.83917 10.4667C8.52128 10.1837 9.86619 9.3025 10.4067 8.7172L10.4453 8.67861C10.5161 8.60786 10.6062 8.49851 10.6255 8.47278C10.7285 8.33772 10.78 8.17049 10.78 8.0039C10.78 7.81673 10.722 7.64307 10.6127 7.50157C10.5869 7.47584 10.4904 7.3665 10.4003 7.27645C9.87263 6.71044 8.49554 5.78425 7.77482 5.50125C7.66542 5.45687 7.38871 5.35974 7.24071 5.35331Z" fill="#FACD66"/>
</svg>
